<?xml version="1.0" standalone="no"?><!DOCTYPE svg PUBLIC "-//W3C//DTD SVG 1.1//EN" "http://www.w3.org/Graphics/SVG/1.1/DTD/svg11.dtd"><svg t="1599802236353" class="icon" viewBox="0 0 1024 1024" version="1.1" xmlns="http://www.w3.org/2000/svg" p-id="5948" xmlns:xlink="http://www.w3.org/1999/xlink" width="200" height="200"><defs><style type="text/css"></style></defs><path d="M1024 696.896l-329.408-110.72s25.344-37.952 52.352-112.256c27.008-74.24 30.912-115.072 30.912-115.072L564.608 357.12V284.288l258.24-1.856V231.04H564.48V113.792H438.08v117.12H197.184v51.52l240.896-1.664v78.08h-193.28v40.768h397.824s-4.352 33.152-19.648 74.304c-15.232 41.216-30.912 77.248-30.912 77.248s-186.816-65.28-285.184-65.28c-98.432 0-218.112 39.488-229.76 154.24-11.52 114.688 55.744 176.832 150.592 199.68 94.848 22.976 182.4-0.256 258.624-37.568 76.224-37.248 151.04-121.984 151.04-121.984l383.872 186.432A189.44 189.44 0 0 1 834.368 1024H189.632A189.44 189.44 0 0 1 0 834.752V189.632A189.44 189.44 0 0 1 189.248 0h645.12A189.44 189.44 0 0 1 1024 189.248v507.648zM544 632.704S424.064 784 282.88 784s-170.88-71.872-170.88-123.52c0-51.712 29.376-107.904 149.568-115.968C381.696 536.32 544 632.704 544 632.704h-0.064z" fill="#02A9F1" p-id="5949"></path></svg>