<?xml version="1.0" standalone="no"?><!DOCTYPE svg PUBLIC "-//W3C//DTD SVG 1.1//EN" "http://www.w3.org/Graphics/SVG/1.1/DTD/svg11.dtd"><svg t="1599745800334" class="icon" viewBox="0 0 1024 1024" version="1.1" xmlns="http://www.w3.org/2000/svg" p-id="6224" xmlns:xlink="http://www.w3.org/1999/xlink" width="200" height="200"><defs><style type="text/css"></style></defs><path d="M294.715077 0h432.364308c102.465641 0 139.63159 10.673231 177.099487 30.72a208.764718 208.764718 0 0 1 86.908718 86.777436c20.151795 37.481026 30.693744 74.646974 30.693743 177.112615v432.469334c0 102.465641-10.633846 139.63159-30.680615 177.099487a209.027282 209.027282 0 0 1-86.921846 86.908718c-37.467897 20.151795-74.633846 30.693744-177.099487 30.693743H294.715077c-102.465641 0-139.63159-10.633846-177.099487-30.680615a208.764718 208.764718 0 0 1-86.89559-86.921846C10.673231 866.710974 0 829.545026 0 727.079385V294.715077C0 192.249436 10.673231 155.083487 30.72 117.497436A208.489026 208.489026 0 0 1 117.497436 30.72C155.096615 10.673231 192.262564 0 294.728205 0z" fill="#02B5FC" p-id="6225"></path><path d="M403.941744 264.126359c93.866667-44.242051 185.527795-34.921026 271.425641 23.32882 38.872615 26.361436 67.885949 61.58441 87.591384 104.487385 5.592615 12.196103 4.201026 19.508513-8.402051 26.702769-76.14359 43.493744-151.801436 87.827692-227.721846 131.728411-25.547487 14.769231-49.664 9.531077-62.09641-12.996923-11.500308-20.834462-7.378051-40.920615 13.180717-53.510565 38.413128-23.512615 77.522051-45.883077 116.394667-68.660512 14.047179-8.231385 28.251897-16.226462 42.377846-24.339693 16.278974-9.321026 16.594051-14.900513 1.929846-27.346051-27.044103-22.948103-58.052923-37.389128-93.223384-41.590154-70.866051-8.467692-130.70441 14.112821-173.751795 70.957949-45.161026 59.628308-51.121231 126.450872-19.495385 194.113641 28.790154 61.58441 94.798769 106.758564 169.83959 102.68882 29.696 1.90359 58.788103-6.826667 86.856205-20.296205 29.669744-14.217846 46.631385-8.927179 63.71118 19.495385 15.806359 26.295795 15.806359 26.295795-9.675487 43.506872-97.897026 66.139897-240.338051 53.195487-325.553231-29.078975-61.138051-58.998154-93.354667-130.70441-86.344205-215.394461 8.454564-102.150564 59.313231-179.659487 152.956718-223.796513zM745.156923 514.56c4.450462-2.546872 9.439179-4.686769 12.550564 0.87959 9.517949 17.04041 20.545641 33.568821 21.963487 53.90441 0.36759 11.670974-4.936205 20.611282-13.96841 26.99159-10.148103 7.154872-21.005128 13.325128-31.507692 19.954872-7.207385 4.568615-12.209231 2.861949-16.384-4.568616a2437.723897 2437.723897 0 0 0-29.55159-50.911179c-4.332308-7.286154-3.006359-12.301128 4.46359-16.449641 17.591795-9.741128 34.986667-19.82359 52.434051-29.801026z" fill="#FFFFFF" p-id="6226"></path></svg>