<?xml version="1.0" standalone="no"?><!DOCTYPE svg PUBLIC "-//W3C//DTD SVG 1.1//EN" "http://www.w3.org/Graphics/SVG/1.1/DTD/svg11.dtd"><svg t="1599802106587" class="icon" viewBox="0 0 1411 1024" version="1.1" xmlns="http://www.w3.org/2000/svg" p-id="24406" xmlns:xlink="http://www.w3.org/1999/xlink" width="275.5859375" height="200"><defs><style type="text/css"></style></defs><path d="M512 0c282.769383 0 512 229.230617 512 512S794.769383 1024 512 1024 0 794.769383 0 512 229.230617 0 512 0z m0 34.133333C248.082963 34.133333 34.133333 248.082963 34.133333 512S248.082963 989.866667 512 989.866667 989.866667 775.917037 989.866667 512 775.917037 34.133333 512 34.133333z" fill="#CCCCCC" opacity=".7" p-id="24407"></path><path d="M512 56.888889c251.354074 0 455.111111 203.757037 455.111111 455.111111S763.354074 967.111111 512 967.111111 56.888889 763.354074 56.888889 512 260.645926 56.888889 512 56.888889z m0 11.377778C266.935309 68.266667 68.266667 266.935309 68.266667 512S266.935309 955.733333 512 955.733333 955.733333 757.064691 955.733333 512 757.064691 68.266667 512 68.266667z" fill="#CCCCCC" opacity=".7" p-id="24408"></path><path d="M341.238519 669.139753c41.576296-11.156543 47.028148-26.595556 39.869629-72.628148a82.17284 82.17284 0 0 1-25.362963-2.797037c6.842469 38.083951 4.898765 46.364444-20.701234 53.254321L248.936296 670.024691c-26.105679 6.984691-31.794568 5.135802-35.808395-9.844938l-15.612839-58.279506 118.471111-31.731358 3.113086 11.599012 23.213827-6.226173-30.451358-113.619753-176.007901 47.154568 5.894321 21.997037 152.809877-40.928395 15.533827 58.010864-118.471111 31.762963-9.781729-36.519506-23.213827 6.210371 31.225679 116.543209c8.817778 32.869136 23.940741 37.135802 65.769877 25.91605l85.601975-22.929383z m288.316049-70.004938c1.21679-7.063704 5.641481-18.615309 9.118025-24.983704-49.619753 2.401975-86.755556-14.33284-113.540741-46.554074l88.019753-23.577284-6.099753-22.723951-98.401975 26.358519c-1.580247-10.714074-3.887407-21.238519-6.668642-31.636543l-3.239507-12.088889 76.641976-20.54321-6.083951-22.723951-76.641975 20.54321-10.824692-40.375308-23.450864 6.27358 10.824692 40.375309-40.865186 10.951111c1.564444-11.551605 2.275556-23.403457 2.496791-35.128889l-25.046914 1.264197c0.015802 33.943704-6.004938 69.499259-18.646914 93.882469 6.52642 1.106173 19.120988 3.681975 24.69926 6.083951 5.214815-11.504198 9.528889-25.362963 12.67358-40.70716l50.773333-13.605926 3.160494 11.851851c2.797037 10.382222 5.167407 21.159506 6.257778 32l-92.365432 24.746667 6.099753 22.739753 86.550123-23.198024c-2.860247 31.857778-20.464198 64.821728-70.558024 97.422222 6.257778 3.002469 15.375802 10.903704 19.452839 15.518024 52.73284-34.338765 72.154074-71.158519 75.741235-107.109135 30.245926 36.472099 67.887407 55.150617 119.94074 54.945185z m102.352592-207.012346l-5.372839-20.069136-54.897778 14.696297 12.894815-9.923951c-5.278025-7.126914-15.707654-17.035062-24.809877-23.924938l-16.987654 12.057284c8.075062 6.921481 17.272099 16.118519 22.376296 23.545679l-49.79358 13.353086 5.37284 20.069136 111.217777-29.803457z m40.865186 169.923951c19.2-17.319506 32.963951-36.551111 41.876543-58.374321 16.89284 14.648889 35.113086 25.568395 55.055802 31.367901 2.085926-6.779259 6.637037-16.813827 10.793087-22.597531-21.017284-4.977778-40.580741-16.055309-57.963457-31.604938 7.885432-29.598025 8.580741-63.731358 4.013827-103.980247l12.578766-3.350124-5.578272-20.796049-62.862222 16.845432c-0.537284-13.590123-1.264198-27.90716-2.465185-42.097778l-21.870618 2.496791c4.345679 38.479012 4.187654 76.61037-4.108642 106.556049-8.248889-10.477037-24.38321-24.304198-38.637037-33.959506l-14.111605 13.116049c14.569877 10.872099 31.478519 26.548148 39.063704 37.467654l12.483951-12.404938a52.875062 52.875062 0 0 1-3.065679 8.849383c5.451852 2.939259 15.10716 9.955556 19.231605 13.763951 2.56-6.905679 4.740741-14.222222 6.795061-22.028642a289.15358 289.15358 0 0 0 33.817284 45.874567c-8.422716 23.766914-22.881975 44.231111-44.815802 62.024692 5.625679 2.639012 15.944691 9.197037 19.768889 12.831605z m-123.575309-72.359506c8.438519-18.836543 15.802469-46.459259 19.531852-70.273581l-21.127901-0.553086c-2.449383 20.859259-9.228642 43.930864-17.619753 60.950123 5.436049 1.912099 14.806914 6.921481 19.231605 9.876544z m155.243457-27.06963a273.493333 273.493333 0 0 1-35.271111-53.270124 638.419753 638.419753 0 0 1 1.042963-17.382716l34.575802-9.260246c3.90321 30.040494 3.919012 56.209383-0.347654 79.913086z m-129.643457 118.692346a174.854321 174.854321 0 0 0 35.508148-65.738272c13.210864 9.671111 24.367407 19.373827 31.968395 27.448889l14.380247-18.883951c-9.402469-9.923951-24.335802-21.206914-40.501728-32.173827 2.797037-14.743704 4.219259-30.65679 4.361481-47.565432l-22.313086 1.848889c0.268642 11.58321-0.474074 22.407901-1.801482 32.869136-9.276049-5.530864-18.220247-10.919506-26.50074-15.691852l-13.195062 16.481975a700.997531 700.997531 0 0 1 35.223704 22.186667c-6.858272 25.679012-19.105185 48.655802-36.946173 67.160494 5.736296 2.085926 15.802469 8.722963 19.816296 12.057284z" fill="#BBBBBB" opacity=".7" p-id="24409"></path></svg>