<?xml version="1.0" standalone="no"?><!DOCTYPE svg PUBLIC "-//W3C//DTD SVG 1.1//EN" "http://www.w3.org/Graphics/SVG/1.1/DTD/svg11.dtd"><svg t="1599745806361" class="icon" viewBox="0 0 1024 1024" version="1.1" xmlns="http://www.w3.org/2000/svg" p-id="6350" xmlns:xlink="http://www.w3.org/1999/xlink" width="200" height="200"><defs><style type="text/css"></style></defs><path d="M294.715077 0h432.364308c102.465641 0 139.63159 10.673231 177.099487 30.72a208.764718 208.764718 0 0 1 86.908718 86.777436c20.151795 37.481026 30.693744 74.646974 30.693743 177.112615v432.469334c0 102.465641-10.633846 139.63159-30.680615 177.099487a209.027282 209.027282 0 0 1-86.921846 86.908718c-37.467897 20.151795-74.633846 30.693744-177.099487 30.693743H294.715077c-102.465641 0-139.63159-10.633846-177.099487-30.680615a208.764718 208.764718 0 0 1-86.89559-86.921846C10.673231 866.710974 0 829.545026 0 727.079385V294.715077C0 192.249436 10.673231 155.083487 30.72 117.497436A208.489026 208.489026 0 0 1 117.497436 30.72C155.096615 10.673231 192.262564 0 294.728205 0z" fill="#FFC300" p-id="6351"></path><path d="M480.098462 600.024615v-37.192205H320.354462V531.561026h151.932717v-39.384616H320.354462v-31.245128h151.932717v-39.384615H320.354462V390.301538H480.098462v-37.244717H429.292308v-30.746257h-40.631795l-9.399795 30.746257H215.512615l-9.439179-30.746257h-40.59241v30.746257h-50.937436v37.244717H274.379487v31.245129H122.446769v39.384615h151.91959v31.258256H122.446769v39.384616h151.91959v31.245128H114.556718v37.205333H260.857436c-34.947282 39.515897-96.361026 58.354872-146.313846 58.551795v40.894359c47.366564 0 91.766154-11.579077 128.420102-33.13559a186.289231 186.289231 0 0 0 54.35077-47.432205 186.433641 186.433641 0 0 0 54.390153 47.432205c36.667077 21.556513 81.079795 33.004308 128.485744 33.13559v-40.881231c-50.149744-0.210051-111.497846-19.035897-146.418872-58.551794H480.098462z m145.408 29.118359h48.482461a562.858667 562.858667 0 0 0 49.821539-163.84h44.425846v81.079795a412.356923 412.356923 0 0 1-8.323282 82.760205h42.496c5.461333-27.254154 8.205128-54.967795 8.192-82.760205v-81.079795h28.750769v-38.54441h-28.711385v-33.581949h-42.299077v33.581949H611.511795v38.54441h68.89682c-11.946667 80.410256-45.869949 147.219692-54.797128 163.84h-0.105025z m-83.928616-300.819692v370.740513h321.273436a44.320821 44.320821 0 0 0 44.307692-44.307692V328.323282H541.577846z m325.369436 320.590769a10.069333 10.069333 0 0 1-10.082461 10.069334H581.579487V368.377436h285.380923v280.536615z" fill="#000000" p-id="6352"></path></svg>