<?xml version="1.0" standalone="no"?><!DOCTYPE svg PUBLIC "-//W3C//DTD SVG 1.1//EN" "http://www.w3.org/Graphics/SVG/1.1/DTD/svg11.dtd"><svg t="1599745810811" class="icon" viewBox="0 0 1024 1024" version="1.1" xmlns="http://www.w3.org/2000/svg" p-id="6476" xmlns:xlink="http://www.w3.org/1999/xlink" width="200" height="200"><defs><style type="text/css"></style></defs><path d="M512 0c282.737778 0 512 229.205333 512 512s-229.262222 512-512 512C229.205333 1024 0 794.794667 0 512S229.205333 0 512 0z m266.638222 668.273778H245.304889a17.180444 17.180444 0 0 0-12.487111 5.233778 16.526222 16.526222 0 0 0-5.262222 12.316444c0 4.693333 1.735111 8.817778 5.262222 12.288s7.68 5.176889 12.515555 5.176889h533.304889a17.066667 17.066667 0 0 0 12.487111-5.176889 16.782222 16.782222 0 0 0 5.319111-12.288 16.583111 16.583111 0 0 0-5.319111-12.316444 17.095111 17.095111 0 0 0-12.515555-5.233778z m-213.333333-420.096h-106.666667a17.379556 17.379556 0 0 0-12.487111 5.12 16.810667 16.810667 0 0 0-5.262222 12.373333c0 4.750222 1.706667 8.817778 5.262222 12.316445a17.208889 17.208889 0 0 0 12.515556 5.176888h35.555555v35.015112a277.987556 277.987556 0 0 0-104.448 26.538666 283.221333 283.221333 0 0 0-84.707555 60.956445 287.516444 287.516444 0 0 0-56.718223 87.296A268.288 268.288 0 0 0 227.555556 598.272v17.521778c0 4.721778 1.735111 8.817778 5.262222 12.259555 3.527111 3.470222 7.68 5.233778 12.515555 5.233778h533.304889c4.835556 0 9.016889-1.763556 12.487111-5.233778a16.554667 16.554667 0 0 0 5.319111-12.231111v-17.550222a268.344889 268.344889 0 0 0-20.849777-105.301333 287.516444 287.516444 0 0 0-56.689778-87.296 282.538667 282.538667 0 0 0-84.736-60.956445 277.731556 277.731556 0 0 0-104.448-26.538666V283.164444h35.584c4.835556 0 8.96-1.706667 12.515555-5.176888a16.611556 16.611556 0 0 0 5.233778-12.316445 16.810667 16.810667 0 0 0-5.262222-12.344889 17.294222 17.294222 0 0 0-12.487111-5.12z" fill="#45B058" p-id="6477"></path></svg>