<?xml version="1.0" standalone="no"?><!DOCTYPE svg PUBLIC "-//W3C//DTD SVG 1.1//EN" "http://www.w3.org/Graphics/SVG/1.1/DTD/svg11.dtd"><svg t="1599802232495" class="icon" viewBox="0 0 1024 1024" version="1.1" xmlns="http://www.w3.org/2000/svg" p-id="5822" xmlns:xlink="http://www.w3.org/1999/xlink" width="200" height="200"><defs><style type="text/css"></style></defs><path d="M510.72 510.72m-510.72 0a510.72 510.72 0 1 0 1021.44 0 510.72 510.72 0 1 0-1021.44 0Z" fill="#64CC51" p-id="5823"></path><path d="M334.336 520.576a34.1248 34.1248 0 0 0-1.2288 48.2816l98.304 103.2704a33.7152 33.7152 0 0 0 51.0464-2.56l213.376-274.9184a34.1248 34.1248 0 0 0-6.0928-47.9232 34.2784 34.2784 0 0 0-48.0256 6.0928l-188.5696 242.944-70.4-73.9328a34.2528 34.2528 0 0 0-48.384-1.2544z" fill="#FFFFFF" p-id="5824"></path></svg>