<?xml version="1.0" standalone="no"?><!DOCTYPE svg PUBLIC "-//W3C//DTD SVG 1.1//EN" "http://www.w3.org/Graphics/SVG/1.1/DTD/svg11.dtd"><svg t="1599802221766" class="icon" viewBox="0 0 1024 1024" version="1.1" xmlns="http://www.w3.org/2000/svg" p-id="5571" xmlns:xlink="http://www.w3.org/1999/xlink" width="200" height="200"><defs><style type="text/css"></style></defs><path d="M598.685465 929.880549c-136.528669 27.732386-283.552979-10.666302-388.08274-115.110734a421.958916 421.958916 0 0 1-31.998907-564.716705v78.845306a42.750539 42.750539 0 0 0 85.330418 0V158.408241c0-12.799563-4.266521-23.380534-12.799563-29.865646a42.153226 42.153226 0 0 0-29.865646-12.714232h-170.660836c-23.380534 0-42.665209 19.199344-42.665209 42.665208 0 23.380534 19.284674 42.579879 42.665209 42.579879h59.731293c-159.909203 198.222561-145.06171 488.00466 38.398688 673.427658 127.995627 127.824966 304.970913 172.538105 469.146637 138.491268a56.318076 56.318076 0 0 0 19.284675-10.666302 41.214592 41.214592 0 0 0 0-59.731293c-8.533042-12.799563-25.599125-17.066084-38.398688-12.799562z m375.453839-104.444431h-57.683363a511.129203 511.129203 0 0 0-42.665209-675.475588C754.328147 30.583275 592.456345-16.263124 436.728332 4.98415a37.545384 37.545384 0 0 0-27.732386 12.799562 41.214592 41.214592 0 0 0 0 59.731293c10.666302 10.580972 25.599125 14.847493 40.531949 10.580972 127.995627-19.114014 264.524295 21.332604 362.568945 119.377254a421.873586 421.873586 0 0 1 31.913577 564.716706v-78.845306a42.665209 42.665209 0 0 0-85.330418 0v170.490175c0 12.799563 4.351851 23.465865 12.799562 29.865646 8.533042 8.533042 19.284674 12.714232 29.950977 12.714232h170.660836c23.380534 0 42.665209-19.114014 42.665209-42.665209 0-23.380534-17.066084-38.313358-40.617279-38.313357z" fill="#F56A00" p-id="5572"></path></svg>