<?xml version="1.0" standalone="no"?><!DOCTYPE svg PUBLIC "-//W3C//DTD SVG 1.1//EN" "http://www.w3.org/Graphics/SVG/1.1/DTD/svg11.dtd"><svg t="1599745782581" class="icon" viewBox="0 0 1024 1024" version="1.1" xmlns="http://www.w3.org/2000/svg" p-id="6099" xmlns:xlink="http://www.w3.org/1999/xlink" width="200" height="200"><defs><style type="text/css"></style></defs><path d="M231.384615 87.788308c16.305231 0 29.538462 13.075692 29.538462 29.223384a29.341538 29.341538 0 0 1-25.521231 29.026462l-4.017231 0.236308H157.538462c-30.72 0-55.926154 23.236923-58.801231 52.893538L98.461538 204.8v702.188308c0 30.404923 23.433846 55.374769 53.405539 58.210461l5.671385 0.275693h708.923076c30.72 0 55.926154-23.197538 58.801231-52.854154l0.275693-5.632V204.8c0-30.404923-23.433846-55.414154-53.405539-58.249846L866.461538 146.274462h-88.615384a29.380923 29.380923 0 0 1-29.538462-29.26277c0-14.808615 11.106462-27.017846 25.521231-28.987077l4.017231-0.236307H866.461538c62.936615 0 114.372923 48.718769 117.956924 110.119384L984.615385 204.8v702.188308c0 62.306462-49.191385 113.270154-111.222154 116.814769L866.461538 1024H157.538462C94.601846 1024 43.165538 975.281231 39.581538 913.841231L39.384615 907.027692V204.8c0-62.306462 49.191385-113.270154 111.222154-116.814769L157.538462 87.788308h73.846153z m558.08 504.201846c11.342769 9.452308 13.705846 25.6 6.183385 37.730461l-2.56 3.505231-155.096615 182.862769a29.735385 29.735385 0 0 1-38.754462 5.671385l-3.544615-2.678154-103.384616-91.411692a29.065846 29.065846 0 0 1-2.363077-41.353846 29.735385 29.735385 0 0 1 38.242462-4.962462l3.505231 2.638769 80.659692 71.325539 135.483077-159.744a29.735385 29.735385 0 0 1 41.629538-3.544616zM364.307692 709.474462c16.305231 0 29.538462 13.115077 29.538462 29.262769a29.341538 29.341538 0 0 1-25.521231 28.987077l-4.017231 0.275692H253.518769a29.380923 29.380923 0 0 1-29.538461-29.262769c0-14.808615 11.145846-27.057231 25.560615-28.987077l3.977846-0.275692H364.307692zM789.464615 299.441231c11.342769 9.452308 13.705846 25.560615 6.183385 37.691077l-2.56 3.544615-155.096615 182.823385a29.735385 29.735385 0 0 1-38.754462 5.710769l-3.544615-2.717539-103.384616-91.411692a29.065846 29.065846 0 0 1-2.363077-41.314461 29.735385 29.735385 0 0 1 38.242462-4.962462l3.505231 2.638769 80.659692 71.286154 135.483077-159.704615a29.735385 29.735385 0 0 1 41.629538-3.584zM364.307692 416.925538c16.305231 0 29.538462 13.075692 29.538462 29.26277a29.341538 29.341538 0 0 1-25.521231 28.987077l-4.017231 0.236307H253.518769a29.380923 29.380923 0 0 1-29.538461-29.223384c0-14.848 11.145846-27.057231 25.560615-29.026462l3.977846-0.236308H364.307692zM600.615385 0c65.260308 0 118.153846 52.381538 118.153846 117.011692 0 64.669538-52.893538 117.051077-118.153846 117.051077h-177.23077c-65.260308 0-118.153846-52.381538-118.153846-117.051077C305.230769 52.420923 358.124308 0 423.384615 0z m0 58.525538h-177.23077c-32.610462 0-59.076923 26.190769-59.076923 58.486154 0 32.334769 26.466462 58.525538 59.076923 58.525539h177.23077c32.610462 0 59.076923-26.190769 59.076923-58.525539 0-32.295385-26.466462-58.486154-59.076923-58.486154z" fill="#2A2A2A" p-id="6100"></path></svg>