<svg t="1610528000821" class="icon" viewBox="0 0 1024 1024" version="1.1" xmlns="http://www.w3.org/2000/svg" p-id="11158" width="200" height="200"><path d="M0 0m204.8 0l614.4 0q204.8 0 204.8 204.8l0 614.4q0 204.8-204.8 204.8l-614.4 0q-204.8 0-204.8-204.8l0-614.4q0-204.8 204.8-204.8Z" fill="#EBEBEB" p-id="11159"></path><path d="M837.376 0A186.7776 186.7776 0 0 1 1024 186.624v650.752A186.7776 186.7776 0 0 1 837.376 1024H186.624A186.7776 186.7776 0 0 1 0 837.376V186.624A186.7776 186.7776 0 0 1 186.624 0h650.752z m0 73.1648H186.624A113.664 113.664 0 0 0 73.216 186.624v650.752a113.664 113.664 0 0 0 113.4592 113.4592h650.752a113.664 113.664 0 0 0 113.4592-113.4592V186.624a113.664 113.664 0 0 0-113.4592-113.4592z" fill="#CCCCCC" p-id="11160"></path><path d="M231.6288 583.2704a45.568 45.568 0 0 1-12.1856-31.2832c0-11.776 4.4032-23.04 12.1856-31.2832a40.448 40.448 0 0 1 59.4944 0l138.3424 145.408 347.2896-360.4992a40.448 40.448 0 0 1 59.4944 0 46.1312 46.1312 0 0 1 0 62.5152l-377.0368 392.0384a41.2672 41.2672 0 0 1-59.4944-0.3584l-168.0896-176.5376z" fill="#999999" p-id="11161"></path></svg>