<svg t="1610527593104" class="icon" viewBox="0 0 1024 1024" version="1.1" xmlns="http://www.w3.org/2000/svg" p-id="11017" width="200" height="200"><path d="M0 0m204.8 0l614.4 0q204.8 0 204.8 204.8l0 614.4q0 204.8-204.8 204.8l-614.4 0q-204.8 0-204.8-204.8l0-614.4q0-204.8 204.8-204.8Z" fill="#EBEBEB" p-id="11018"></path><path d="M837.376 0A186.7776 186.7776 0 0 1 1024 186.624v650.752A186.7776 186.7776 0 0 1 837.376 1024H186.624A186.7776 186.7776 0 0 1 0 837.376V186.624A186.7776 186.7776 0 0 1 186.624 0h650.752z m0 73.1648H186.624A113.664 113.664 0 0 0 73.216 186.624v650.752a113.664 113.664 0 0 0 113.4592 113.4592h650.752a113.664 113.664 0 0 0 113.4592-113.4592V186.624a113.664 113.664 0 0 0-113.4592-113.4592z" fill="#CCCCCC" p-id="11019"></path></svg>