<?xml version="1.0" standalone="no"?><!DOCTYPE svg PUBLIC "-//W3C//DTD SVG 1.1//EN" "http://www.w3.org/Graphics/SVG/1.1/DTD/svg11.dtd"><svg t="1599807788109" class="icon" viewBox="0 0 1024 1024" version="1.1" xmlns="http://www.w3.org/2000/svg" p-id="6828" xmlns:xlink="http://www.w3.org/1999/xlink" width="200" height="200"><defs><style type="text/css"></style></defs><path d="M512 512m-465.454545 0a465.454545 465.454545 0 1 0 930.90909 0 465.454545 465.454545 0 1 0-930.90909 0Z" fill="#FFFFFF" p-id="6829"></path><path d="M512 0c278.295273 0 504.692364 221.928727 511.813818 498.594909L1024 512c0 278.295273-221.928727 504.692364-498.594909 511.813818L512 1024C229.236364 1024 0 794.810182 0 512 0 233.704727 221.928727 7.307636 498.594909 0.186182L512 0z m-11.543273 73.309091c-237.474909 6.050909-427.287273 200.610909-427.287272 438.690909 0 242.408727 196.421818 438.877091 437.899636 438.877091l12.474182-0.186182c237.474909-6.050909 427.287273-200.610909 427.287272-437.76l-0.139636-12.474182c-6.004364-233.192727-193.629091-420.398545-425.797818-427.147636l-12.474182-0.186182-11.962182 0.186182z" fill="#CCCCCC" p-id="6830"></path></svg>