<?xml version="1.0" standalone="no"?><!DOCTYPE svg PUBLIC "-//W3C//DTD SVG 1.1//EN" "http://www.w3.org/Graphics/SVG/1.1/DTD/svg11.dtd"><svg t="1599802240882" class="icon" viewBox="0 0 1705 1024" version="1.1" xmlns="http://www.w3.org/2000/svg" p-id="6073" xmlns:xlink="http://www.w3.org/1999/xlink" width="333.0078125" height="200"><defs><style type="text/css"></style></defs><path d="M310.632825 1.777482c-48.019297 5.714552-95.953303 43.754706-111.73229 87.42412-10.405603 27.293384-197.877033 799.78144-198.815243 813.769299-1.705836 40.513617 22.687625 70.195172 62.774783 77.61556 14.840777 3.326381 491.110326 3.326381 506.804022 0 45.375251-8.273307 88.106455-42.134161 103.80015-83.330112 6.05572-15.693696 199.753453-803.022529 199.753454-816.242762 2.558755-37.187236-20.981789-67.721709-58.4249-78.468479C806.007743 0.924563 330.676404-0.695981 310.632825 1.69219z" fill="#E60012" p-id="6074"></path><path d="M746.388757 1.777482C698.540044 7.492034 650.435455 45.532188 634.741759 89.201602c-9.552684 27.293384-197.962325 799.78144-197.962325 813.769299-1.705836 40.513617 22.687625 70.195172 62.774783 77.61556 14.840777 3.326381 491.110326 3.326381 506.804022 0 45.375251-8.273307 88.106455-42.134161 103.800151-83.330112 6.05572-15.693696 199.753453-803.022529 199.753453-816.242762 2.558755-37.187236-20.981789-67.721709-58.4249-78.468479C1241.848967 0.924563 766.517628-0.695981 746.303466 1.69219z" fill="#00508E" p-id="6075"></path><path d="M1188.456285 2.545108c-48.786924 5.799844-97.573847 43.669414-113.608711 87.42412-9.723268 27.208092-201.373998 799.099105-201.373998 813.086965-1.705836 40.428325 23.028793 70.10988 63.883577 77.530268 15.096653 3.326381 375.284028 3.326381 391.318891 0 46.057585-8.273307 89.556416-42.04887 105.505987-83.330112 6.226303-15.608404 203.250418-802.340194 203.250419-815.560428 2.558755-37.101944-21.322956-67.636417-59.448402-78.297895-8.87035-2.558755-413.494766-4.179299-433.879512-1.705836h44.351749v0.852918z" fill="#00908C" p-id="6076"></path><path d="M274.042633 245.541516c0 0.852918-0.852918 5.62926-2.473463 10.405603-18.593618 62.348324-37.187236 146.360771-34.713773 156.766374 6.482179 31.131516 52.539764 28.743345 68.659919-4.008716 4.861634-8.785058 39.575407-155.145829 39.575407-165.46614 0-0.852918 55.013227 0 55.013226 0.682335 0 0 0 2.473463-0.852918 4.861634s-9.637976 35.99315-19.361244 75.909724c-21.834707 84.780074-24.222878 93.565132-35.566691 110.367621-37.187236 54.416184-161.628008 52.795639-171.351276-2.388171-2.388171-11.940855 24.30817-150.284195 36.41961-187.89789 0-2.388171 64.651203-0.852918 64.651203 0.852918z m825.795446 0c37.187236 8.017432 48.531048 37.528403 31.557975 81.624277-16.973073 43.92529-53.30739 63.11595-117.190967 63.11595-19.361244 0-17.7407-3.155798-29.852139 56.804355-2.473463 11.173229-4.861634 21.578832-4.861634 23.199376-0.852918 4.008716-58.169024 4.008716-57.401398 0 48.531048-205.553297 52.539764-223.123413 52.539764-224.743958l0.852918-2.388171h58.169025c46.057585 0.852918 58.936651 0.852918 66.186456 2.388171z m-498.530715 79.150814c8.102723 1.705836 13.646692 8.017432 13.646692 13.646692 0 19.958287-41.110659 33.604979-56.463188 18.337742-14.49961-15.181945 16.205447-38.381321 42.816496-31.984434z m-143.03439 15.181945c0 1.705836-0.852918 4.861634-0.852918 7.249805l-0.852919 3.155797 9.80856-4.776342c25.843423-12.793774 50.833927-10.405603 58.936651 5.62926 4.861634 9.552684 4.094008 15.181945-8.87035 74.374471-2.388171 10.405603-5.62926 24.734629-6.482178 31.984435-3.241089 15.949571-0.852918 15.181945-29.852139 15.181944-25.075796 0-25.075796 0-24.30817-2.388171 0-1.705836 3.241089-14.49961 6.482179-29.596263 12.964357-56.804355 13.731984-64.821787 2.473462-64.821786-6.482179 0-15.352528 4.008716-16.205446 6.396886-1.620545 5.62926-16.205447 75.227389-16.973073 81.624277l-1.620545 7.164513-24.990505 1.620544c-30.705057 0.852918-28.316886 3.155798-21.834707-23.967002a785.537705 785.537705 0 0 0 16.973073-82.391903c4.008716-23.967003 1.620545-21.578832 24.222879-24.734629 10.490894-1.705836 20.981789-3.241089 24.222878-4.094008 8.102723-2.388171 9.723268-1.535253 9.723268 2.388172z m383.813211-0.767627c0 1.620545-0.852918 4.776342-0.852919 7.249805l-0.767626 3.923424 9.723268-4.776342c50.066301-25.587547 69.512837-4.776342 54.927935 60.813071-3.241089 14.329027-7.249805 35.140232-9.723268 44.778208a84.865366 84.865366 0 0 1-4.776342 19.958287c-3.241089 3.241089-50.919219 2.388171-50.151593 0 0-1.620545 3.241089-14.414318 6.482179-28.743345 13.731984-58.4249 13.731984-65.674705 1.620544-65.674705-9.723268 0-14.49961 3.241089-16.205446 10.490894-2.388171 8.785058-14.49961 66.35704-16.120155 76.762643l-1.620545 8.785057-25.075796 0.852919c-30.705057 0.767626-28.231594 3.923424-20.981789-25.587548 8.102723-32.069726 13.731984-61.665989 17.740699-83.244821 3.241089-20.811205 0.852918-18.337742 21.067081-21.578831 8.87035-1.620545 20.214162-3.241089 24.222878-4.008716 8.102723-4.008716 10.490894-3.155798 10.490895 0z m490.513283-0.852918c3.241089 48.872216 4.008716 63.201242 4.008716 63.968868 0 0.852918 7.335097-11.940855 15.352528-27.890426 16.205447-31.984434 12.964357-28.828637 30.705057-31.216808 4.861634-0.852918 14.584902-2.388171 21.834707-4.008716 17.825991-3.155798 17.825991-4.776342-2.388171 30.36389-27.463968 47.251671-65.504121 113.60871-79.236105 137.575713-41.195951 74.374471-41.195951 74.374471-75.909724 75.142097l-21.06708 0.852919 1.705836-5.629261c0.767626-3.241089 3.155798-9.637976 4.008716-14.414318l2.388171-8.785058h6.482179c7.249805 0 8.87035-1.620545 15.352528-12.793774 2.388171-4.008716 6.482179-10.405603 8.102723-14.414318 2.388171-4.008716 10.490894-16.802489 16.973074-29.596263l12.879065-22.346458-3.241089-29.596264A1934.077416 1934.077416 0 0 0 1279.37737 358.297309c-1.705836-11.173229-1.705836-11.173229 12.879065-12.793774 6.482179-0.852918 17.058365-3.155798 22.687626-4.008716 15.352528-4.776342 16.973073-4.776342 17.740699-3.155797z m-609.324795 0.852918c62.263032 11.173229 40.428325 118.385053-27.463968 133.566997-46.057585 10.405603-77.61556-7.249805-77.61556-42.390036 0.852918-61.580697 46.910504-101.497271 105.079528-91.176961z m465.522779 3.241089a48.531048 48.531048 0 0 1 10.490894 7.164514c4.008716 4.008716 4.008716 4.008716 4.008716 1.620544 0.852918-3.241089 0-3.241089 32.410893-8.017431 25.758131-4.008716 24.990505-4.008716 23.36996 3.241089-10.490894 44.778208-19.446536 83.927155-23.455251 103.117816-5.62926 28.743345-1.620545 25.587547-33.093228 24.734629h-26.696341v-3.155797c0-3.155798-1.620545-4.776342-3.24109-2.388171-8.87035 14.414318-52.539764 8.785058-64.651203-8.785058-29.852139-44.778208 33.946146-139.110966 80.85665-117.532135z m-580.240283 23.199377s0 3.923424-0.852918 7.164513c-6.396887 25.587547-17.7407 77.61556-20.128871 87.168245l-2.473463 11.940855-26.611049 0.852918c-31.557975 0.852918-29.852139 2.388171-23.455252-16.802489 5.62926-18.423034 11.343813-40.769492 14.49961-64.821787 3.241089-20.725913 0-17.570116 23.455252-20.725913 10.490894-1.620545 21.834707-3.241089 24.222878-4.008716 6.482179-1.620545 10.576186-1.620545 11.343813-0.852918z m141.413845 165.46614c0 0.852918-1.620545 4.008716-4.008716 8.017431-1.705836 4.008716-4.094008 7.164513-4.094007 7.164513 47.763422 0.852918 49.298675 0.852918 48.531048 3.24109l-8.87035 28.743345h-69.512837l-4.094007 3.241089c-8.87035 8.017432-55.695561 18.337742-55.695562 11.940855l8.87035-28.743345h6.482178c11.258521 0 13.646692-2.388171 23.36996-19.19066l8.102724-15.181945c42.04887-0.852918 50.919219 0 50.919219 0.852918z m105.847154 0c0 0.852918-0.852918 4.776342-2.388171 9.637976a35.822566 35.822566 0 0 0-2.473463 8.785058s4.094008-1.620545 8.955642-5.629261c17.7407-11.940855 33.093228-14.414318 78.383187-14.414318 17.7407 0 33.093228 0 33.860854 0.852918 0.852918 1.620545-25.843423 87.935871-29.852138 95.953303a40.598909 40.598909 0 0 1-20.214163 19.958287l-8.102723 3.241089-46.057585 0.767627-46.057586 0.852918-8.017431 27.1228c-16.205447 52.028013-16.205447 48.019297 7.249805 45.631126 18.593618-1.705836 17.7407-3.241089 12.111439 15.949571l-4.861634 16.034863h-23.455252c-50.919219 0.767626-57.316106-2.473463-52.539764-23.199376 2.473463-10.405603 60.642487-200.691663 61.410114-202.312208 0.852918-0.852918 42.04887-0.852918 42.048869 0.852918z m212.547228 0c0 0.852918-0.852918 3.241089-1.620545 6.396886-2.388171 8.017432-2.388171 8.017432 8.102723 2.388171 13.646692-7.164513 46.057585-9.552684 112.329333-9.552684h20.981789v9.552684c0 11.258521 0.852918 11.940855 10.490895 13.646692l7.249805 0.767627-4.008716 14.414318-4.008716 14.414319h-14.49961c-37.272527 0.767626-42.901788-3.241089-43.669414-24.819921v-10.405603l-2.473463 7.164513-2.388171 8.017432h-8.102724c-4.008716 0-8.102723 0-8.102723 0.852918l-45.204667 148.66365c-0.852918 1.705836 0 2.388171 4.861634 2.388171 7.249805 0 7.249805 0 4.776342 6.396887-2.388171 7.249805-2.388171 7.249805 5.714552 7.249805a22.175874 22.175874 0 0 0 12.879066-3.241089c5.714552-3.155798 5.714552-2.388171 31.557975-38.381321l10.490894-15.181945h-21.834707c-26.696341 0-24.222878 1.620545-19.361244-14.414318l4.008716-12.793774h53.30739c4.861634-16.717198 6.482179-21.578832 6.482179-22.346458 0-0.852918-11.258521-0.852918-25.843423-0.852918h-25.843423l8.102724-28.743345h72.668634c39.575407 0 72.753926 0 72.753927 0.852918 0 0.767626-1.620545 7.164513-4.008716 14.329027l-4.094008 13.646692-24.222878 0.767626-24.222878 0.852918c-4.094008 11.940855-5.714552 17.570116-6.482179 19.105369l-0.852918 3.241089h23.455252c27.463968 0 25.843423-1.620545 20.214162 14.414319l-4.008716 12.793773h-53.392682l-8.017431 9.552685h20.981789l3.241089 19.19066c3.241089 21.578832 3.241089 21.578832 13.731984 21.578832 8.102723 0 8.102723-1.620545 2.388171 17.570116l-4.776342 16.034863h-15.352529c-26.696341 0-31.557975-4.008716-36.419609-31.216808l-2.388171-17.570116-9.723268 12.793774c-26.696341 35.99315-28.231594 36.760776-62.263032 36.760776-21.749415 0-21.749415 0-18.508326-6.396887 0.852918-3.155798 0.852918-3.155798-5.714552-3.155797-6.396887 0-6.396887 0-8.017432 4.776342l-0.852918 4.776342h-45.204667l0.767626-2.388171c2.388171-8.017432 6.482179-7.164513-42.816496-7.164513-42.816496 0-45.204667 0-44.43704-2.388171l4.008715-14.49961c4.861634-14.329027 4.094008-14.329027 8.87035-14.329027 4.094008 0 4.094008 0 5.714552-5.543968l51.686846-171.180693 3.24109-10.405602h22.602333c14.49961 0 25.075796 0.852918 25.075797 1.705836z m-286.836407 68.74521l-8.955641 28.061011H724.127591a234.296642 234.296642 0 0 1-7.249805 22.346458c-0.852918 2.388171 0.852918 2.388171 24.222878 2.388171 13.731984 0 25.075796 0.852918 25.075797 0.852918 0 0.767626-0.852918 2.388171-1.705837 4.776342-0.767626 1.620545-2.388171 8.017432-4.008715 14.414318L757.220819 682.832701h-50.066301l-5.62926 19.190661c-8.102723 27.293384-7.335097 28.06101 23.36996 24.052295 12.964357-1.705836 12.111439-3.241089 6.482178 15.949571l-4.861634 16.034863H692.569616c-53.30739 0-54.075017-1.705836-39.575407-47.166379 4.094008-14.49961 8.102723-26.440466 8.102724-26.440466s-5.62926-0.852918-13.731984-0.852918c-7.249805 0-13.731984 0-13.731984-0.767627 5.62926-19.958287 8.017432-26.355174 8.017432-27.975718 0.852918-1.535253 2.473463-2.388171 14.584902-2.388171h13.731984l6.482178-24.734629h-12.964357c-9.637976 0-12.879066 0-12.879066-1.705837 0-1.535253 7.249805-24.734629 8.017432-27.1228 1.705836-1.620545 123.673146-0.852918 122.820227 0.852918zM938.210071 657.330446c0 1.705836-1.705836 6.396887-2.473463 10.405602-4.861634 22.43175-11.258521 27.208092-37.187235 28.828637l-16.973073 1.620545a63.798285 63.798285 0 0 0 0 24.734629l2.473462 3.241089 16.205447-0.852918c8.785058-0.852918 16.120155-0.852918 16.120155-0.852918 0 1.705836-8.87035 29.681555-9.723268 30.449181-1.620545 1.620545-50.919219 0.852918-57.401398-1.620544-9.637976-3.155798-9.637976-2.388171-8.87035-52.710348l0.852918-44.010582h41.195952v16.80249h8.102723c8.87035 0 9.637976-0.852918 13.646692-11.940856l2.558755-6.482178h16.120155c14.49961 0.852918 16.205447 0.852918 15.352528 2.388171z m75.909724-342.190801l-8.87035 38.381321h12.111439c62.263032 1.620545 88.106455-69.598129 27.463968-74.374471l-19.361244-1.620544c-2.473463 0-2.473463 2.388171-11.343813 37.528403z m-321.550179 54.330893c-15.352528 6.396887-29.93743 63.968868-17.825991 72.839218 8.87035 7.164513 21.834707-4.861634 28.316886-24.819921 10.490894-36.760776 7.249805-54.416184-10.576187-48.019297z m481.557642 4.008715c-16.205447 8.017432-28.231594 64.821787-16.205447 71.218674 16.205447 8.785058 37.187236-21.578832 37.187236-54.416184 0-15.181945-8.87035-22.346458-20.981789-16.80249zM847.800737 563.850606l-4.008716 14.329027c-2.388171 7.249805-4.008716 13.646692-4.861634 14.414318 0 0.852918 4.094008-0.852918 9.723268-4.008716 16.205447-8.017432 20.981789-9.552684 44.437041-10.405602l20.214162-0.852919a79.491981 79.491981 0 0 0 4.008716-14.329026c0.852918-0.852918-68.659919-0.852918-69.512837 0.852918z m-13.646692 46.313461l-3.326381 12.793774 69.512837-0.852919 4.094008-12.793773c-55.013227 0-70.365755 0-70.365756 0.852918z m219.71174-28.743345c-3.241089 10.405603-5.62926 18.337742-4.776342 18.337742l9.637976-3.155797c4.861634-1.620545 13.731984-4.008716 18.593618-4.776342 4.861634-0.852918 8.87035-1.705836 9.723268-1.705837 0 0 8.102723-24.734629 8.102723-25.587547 0 0-8.102723-0.682335-17.825991-0.682335h-17.740699l-5.714553 17.570116z m-12.879065 40.769492c0 0.852918-3.241089 8.785058-5.714552 18.423034-3.155798 9.552684-5.62926 18.337742-5.629261 18.337743 0 0.852918 4.094008-0.852918 9.723268-3.155798 5.62926-2.388171 13.646692-4.861634 18.593618-5.62926 10.490894-1.620545 11.258521-2.388171 12.111439-6.396887 0.852918-1.620545 2.388171-8.017432 4.008716-12.793774l3.241089-9.552684h-17.740699c-9.723268 0-18.593618 0-18.593618 0.767626z m-28.316886 91.944587l35.566691 0.852918a696.834207 696.834207 0 0 0 9.723268-32.837352l-35.566691-1.620545-9.723268 33.604979z" fill="#FFFFFF" p-id="6077"></path></svg>